# xmcd CD database file
#
# Track frame offsets:
#	150
#	20861
#	37463
#	58177
#	79063
#	102814
#	129004
#	149182
#	167451
#	184893
#	209681
#	229935
#
# Disc length: 3329 seconds
#
# Revision: 10
# Processed by: cddbd v1.5.2PL0 Copyright (c) Steve Scherf et al.
# Submitted via: CDex 1.51
#
DISCID=b50cff0c
DTITLE=U2 - Achtung Baby (Deluxe Disk I)
DYEAR=1991
DGENRE=Rock
TTITLE0=Zoo Station 
TTITLE1=Even Better Than The Real Thing
TTITLE2=One
TTITLE3=Until The End Of The World
TTITLE4=Who's Gonna Ride Your Wild Horses 
TTITLE5=So Cruel
TTITLE6=The Fly
TTITLE7=Mysterious Ways
TTITLE8=Tryin' To Throw Your Arms Around The World
TTITLE9=Ultra Violet (Light My Way) 
TTITLE10=Acrobat
TTITLE11=Love Is Blindness
EXTD=YEAR: 1991
EXTT0=
EXTT1=
EXTT2=
EXTT3=
EXTT4=
EXTT5=
EXTT6=The Fly
EXTT7=
EXTT8=
EXTT9=
EXTT10=
EXTT11=
PLAYORDER=
